{
    "asset": {
        "version": "1.0",
        "generator": "Open Asset Import Library (assimp v5.0.cd42b995)"
    },
    "accessors": {
        "mesh_accessor": {
            "bufferView": "mesh_view",
            "byteOffset": 0,
            "byteStride": 0,
            "componentType": 5126,
            "count": 4,
            "type": "VEC3",
            "max": [
                1.0,
                1.0,
                1.0
            ],
            "min": [
                -1.0,
                -1.0,
                -1.0
            ]
        },
        "mesh_accessor_0": {
            "bufferView": "mesh_view_0",
            "byteOffset": 0,
            "byteStride": 0,
            "componentType": 5123,
            "count": 12,
            "type": "SCALAR",
            "max": [
                3
            ],
            "min": [
                0
            ]
        }
    },
    "buffers": {
        "~import_coverage_dir/meshes_1__validation_no_/gltf/scene": {
            "byteLength": 72,
            "type": "arraybuffer",
            "uri": "assets/scene.bin"
        }
    },
    "bufferViews": {
        "mesh_view": {
            "buffer": "~import_coverage_dir/meshes_1__validation_no_/gltf/scene",
            "byteOffset": 0,
            "byteLength": 48,
            "target": 34962
        },
        "mesh_view_0": {
            "buffer": "~import_coverage_dir/meshes_1__validation_no_/gltf/scene",
            "byteOffset": 48,
            "byteLength": 24,
            "target": 34963
        }
    },
    "materials": {
        "material": {
            "values": {
                "ambient": [
                    0.0,
                    0.0,
                    0.0,
                    1.0
                ],
                "diffuse": [
                    0.0,
                    0.0,
                    0.0,
                    1.0
                ],
                "specular": [
                    0.0,
                    0.0,
                    0.0,
                    1.0
                ],
                "emission": [
                    0.0,
                    0.0,
                    0.0,
                    1.0
                ],
                "shininess": 0.0
            }
        }
    },
    "meshes": {
        "mesh": {
            "name": "",
            "primitives": [
                {
                    "mode": 4,
                    "material": "material",
                    "indices": "mesh_accessor_0",
                    "attributes": {
                        "POSITION": "mesh_accessor"
                    }
                }
            ]
        }
    },
    "nodes": {
        "node": {
            "meshes": [
                "mesh"
            ]
        }
    },
    "scenes": {
        "defaultScene": {
            "nodes": [
                "node"
            ]
        }
    },
    "scene": "defaultScene"
}