ply
format ascii 1.0
comment Created by Open Asset Import Library - http://assimp.sf.net (v5.0.3443702165)
element vertex 4
property float x
property float y
property float z
property uchar red
property uchar green
property uchar blue
property uchar alpha
property uchar red1
property uchar green1
property uchar blue1
property uchar alpha1
element face 4
property list uchar int vertex_index
end_header
1 1 1 0 0 255 255 0 255 0 255
-1 1 -1 85 85 255 255 85 255 85 255
-1 -1 1 170 170 255 255 170 255 170 255
1 -1 -1 255 255 255 255 255 255 255 255
3 0 1 2
3 0 2 3
3 0 3 1
3 3 2 1
